<mxfile host="app.diagrams.net" modified="2022-04-19T21:58:14.157Z" agent="5.0 (Macintosh; Intel Mac OS X 10_15_7) AppleWebKit/537.36 (KHTML, like Gecko) Chrome/100.0.4896.127 Safari/537.36" etag="q1UWsdRsRhnEPNfy8neZ" version="17.4.5" type="github">
  <diagram id="4OQi59Qm8AY1YfnPW1HK" name="Page-1">
    <mxGraphModel dx="788" dy="491" grid="1" gridSize="10" guides="1" tooltips="1" connect="1" arrows="1" fold="1" page="1" pageScale="1" pageWidth="850" pageHeight="1100" math="0" shadow="0">
      <root>
        <mxCell id="0" />
        <mxCell id="1" parent="0" />
        <mxCell id="vdjSKUOgppkRG0CxjOew-1" value="" style="whiteSpace=wrap;html=1;" parent="1" vertex="1">
          <mxGeometry x="70" y="90" width="530" height="284" as="geometry" />
        </mxCell>
        <mxCell id="E74i4Yss6tRuVbI0QfsG-2" value="" style="rounded=0;whiteSpace=wrap;html=1;" parent="1" vertex="1">
          <mxGeometry x="70" y="90" width="530" height="30" as="geometry" />
        </mxCell>
        <mxCell id="E74i4Yss6tRuVbI0QfsG-7" value="&lt;span&gt;Streamlined Service&lt;/span&gt;" style="rounded=0;whiteSpace=wrap;html=1;fillColor=#FFFFFF;strokeColor=none;" parent="1" vertex="1">
          <mxGeometry x="77.20558139534883" y="94.08153846153847" width="135.58139534883722" height="21.846153846153854" as="geometry" />
        </mxCell>
        <mxCell id="E74i4Yss6tRuVbI0QfsG-8" value="&lt;b&gt;X&lt;/b&gt;" style="rounded=0;whiteSpace=wrap;html=1;fillColor=#FFFFFF;" parent="1" vertex="1">
          <mxGeometry x="538.3720930232557" y="98.1923076923077" width="36.97674418604651" height="16.384615384615394" as="geometry" />
        </mxCell>
        <mxCell id="E74i4Yss6tRuVbI0QfsG-9" value="" style="rounded=0;whiteSpace=wrap;html=1;fillColor=#FFFFFF;imageAspect=1;" parent="1" vertex="1">
          <mxGeometry x="220" y="150" width="370" height="210" as="geometry" />
        </mxCell>
        <mxCell id="E74i4Yss6tRuVbI0QfsG-20" value="" style="group;strokeColor=none;" parent="1" vertex="1" connectable="0">
          <mxGeometry x="80" y="150" width="130" height="210" as="geometry" />
        </mxCell>
        <mxCell id="E74i4Yss6tRuVbI0QfsG-18" value="" style="group" parent="E74i4Yss6tRuVbI0QfsG-20" vertex="1" connectable="0">
          <mxGeometry width="130" height="210.00000000000003" as="geometry" />
        </mxCell>
        <mxCell id="E74i4Yss6tRuVbI0QfsG-14" value="" style="whiteSpace=wrap;html=1;fillColor=#FFFFFF;" parent="E74i4Yss6tRuVbI0QfsG-18" vertex="1">
          <mxGeometry width="130" height="210.00000000000003" as="geometry" />
        </mxCell>
        <mxCell id="E74i4Yss6tRuVbI0QfsG-15" value="" style="rounded=0;whiteSpace=wrap;html=1;fillColor=#f5f5f5;fontColor=#333333;strokeColor=#666666;" parent="E74i4Yss6tRuVbI0QfsG-18" vertex="1">
          <mxGeometry x="119.16666666666666" width="10.833333333333332" height="210.00000000000003" as="geometry" />
        </mxCell>
        <mxCell id="E74i4Yss6tRuVbI0QfsG-23" value="Service Name - Date" style="rounded=0;whiteSpace=wrap;html=1;align=left;strokeColor=none;" parent="E74i4Yss6tRuVbI0QfsG-18" vertex="1">
          <mxGeometry x="2" y="66.31578947368422" width="116" height="22.10526315789474" as="geometry" />
        </mxCell>
        <mxCell id="E74i4Yss6tRuVbI0QfsG-22" value="Service Name - Date" style="rounded=0;whiteSpace=wrap;html=1;align=left;strokeColor=none;" parent="E74i4Yss6tRuVbI0QfsG-18" vertex="1">
          <mxGeometry x="2" y="44.21052631578948" width="116" height="22.10526315789474" as="geometry" />
        </mxCell>
        <mxCell id="E74i4Yss6tRuVbI0QfsG-21" value="Service Name - Date" style="rounded=0;whiteSpace=wrap;html=1;align=left;strokeColor=none;" parent="E74i4Yss6tRuVbI0QfsG-18" vertex="1">
          <mxGeometry x="2" y="22.10526315789474" width="116" height="22.10526315789474" as="geometry" />
        </mxCell>
        <mxCell id="E74i4Yss6tRuVbI0QfsG-16" value="" style="rounded=0;whiteSpace=wrap;html=1;fillColor=#B3B3B3;" parent="E74i4Yss6tRuVbI0QfsG-18" vertex="1">
          <mxGeometry x="120" width="10" height="44.21052631578948" as="geometry" />
        </mxCell>
        <mxCell id="E74i4Yss6tRuVbI0QfsG-17" value="Service Name - Date" style="rounded=0;whiteSpace=wrap;html=1;align=left;strokeColor=none;" parent="E74i4Yss6tRuVbI0QfsG-20" vertex="1">
          <mxGeometry x="2" y="2.210526315789474" width="116" height="22.10526315789474" as="geometry" />
        </mxCell>
        <mxCell id="Rd3qPR3GxqKm1jp_kwzv-50" style="edgeStyle=orthogonalEdgeStyle;rounded=0;sketch=0;jumpStyle=gap;orthogonalLoop=1;jettySize=auto;html=1;shadow=0;fontSize=15;strokeColor=default;" edge="1" parent="1" source="E74i4Yss6tRuVbI0QfsG-27" target="E74i4Yss6tRuVbI0QfsG-34">
          <mxGeometry relative="1" as="geometry">
            <Array as="points">
              <mxPoint x="40" y="134" />
              <mxPoint x="40" y="590" />
            </Array>
          </mxGeometry>
        </mxCell>
        <mxCell id="E74i4Yss6tRuVbI0QfsG-27" value="New Service" style="rounded=1;whiteSpace=wrap;html=1;strokeColor=default;fillColor=#B3B3B3;" parent="1" vertex="1">
          <mxGeometry x="80" y="124" width="80" height="20" as="geometry" />
        </mxCell>
        <mxCell id="E74i4Yss6tRuVbI0QfsG-28" value="Delete Service" style="rounded=1;whiteSpace=wrap;html=1;strokeColor=default;fillColor=#B3B3B3;" parent="1" vertex="1">
          <mxGeometry x="170" y="124" width="90" height="20" as="geometry" />
        </mxCell>
        <mxCell id="E74i4Yss6tRuVbI0QfsG-29" value="View Roles" style="rounded=1;whiteSpace=wrap;html=1;strokeColor=default;fillColor=#B3B3B3;" parent="1" vertex="1">
          <mxGeometry x="270" y="124" width="80" height="20" as="geometry" />
        </mxCell>
        <mxCell id="Rd3qPR3GxqKm1jp_kwzv-49" style="edgeStyle=orthogonalEdgeStyle;rounded=0;sketch=0;jumpStyle=gap;orthogonalLoop=1;jettySize=auto;html=1;entryX=0;entryY=0.423;entryDx=0;entryDy=0;entryPerimeter=0;shadow=0;fontSize=15;strokeColor=default;" edge="1" parent="1" source="E74i4Yss6tRuVbI0QfsG-30" target="Rd3qPR3GxqKm1jp_kwzv-29">
          <mxGeometry relative="1" as="geometry">
            <Array as="points">
              <mxPoint x="400" y="70" />
              <mxPoint x="60" y="70" />
              <mxPoint x="60" y="1140" />
            </Array>
          </mxGeometry>
        </mxCell>
        <mxCell id="E74i4Yss6tRuVbI0QfsG-30" value="View People" style="rounded=1;whiteSpace=wrap;html=1;strokeColor=default;fillColor=#B3B3B3;" parent="1" vertex="1">
          <mxGeometry x="360" y="124" width="80" height="20" as="geometry" />
        </mxCell>
        <mxCell id="E74i4Yss6tRuVbI0QfsG-31" value="Quit" style="rounded=1;whiteSpace=wrap;html=1;strokeColor=default;fillColor=#B3B3B3;" parent="1" vertex="1">
          <mxGeometry x="450" y="124" width="40" height="20" as="geometry" />
        </mxCell>
        <mxCell id="E74i4Yss6tRuVbI0QfsG-38" value="" style="group" parent="1" vertex="1" connectable="0">
          <mxGeometry x="80" y="721" width="220" height="260" as="geometry" />
        </mxCell>
        <mxCell id="E74i4Yss6tRuVbI0QfsG-39" value="" style="whiteSpace=wrap;html=1;" parent="E74i4Yss6tRuVbI0QfsG-38" vertex="1">
          <mxGeometry width="220" height="260" as="geometry" />
        </mxCell>
        <mxCell id="E74i4Yss6tRuVbI0QfsG-40" value="" style="rounded=0;whiteSpace=wrap;html=1;" parent="E74i4Yss6tRuVbI0QfsG-38" vertex="1">
          <mxGeometry width="220" height="30" as="geometry" />
        </mxCell>
        <mxCell id="E74i4Yss6tRuVbI0QfsG-41" value="&lt;span&gt;Role&lt;/span&gt;" style="rounded=0;whiteSpace=wrap;html=1;fillColor=#FFFFFF;strokeColor=none;align=left;" parent="E74i4Yss6tRuVbI0QfsG-38" vertex="1">
          <mxGeometry x="5.12" y="5" width="154.88" height="20" as="geometry" />
        </mxCell>
        <mxCell id="E74i4Yss6tRuVbI0QfsG-42" value="&lt;b&gt;X&lt;/b&gt;" style="rounded=0;whiteSpace=wrap;html=1;fillColor=#FFFFFF;" parent="E74i4Yss6tRuVbI0QfsG-38" vertex="1">
          <mxGeometry x="190" y="7.5" width="19.77" height="15" as="geometry" />
        </mxCell>
        <mxCell id="Rd3qPR3GxqKm1jp_kwzv-14" value="" style="group;strokeColor=none;" vertex="1" connectable="0" parent="E74i4Yss6tRuVbI0QfsG-38">
          <mxGeometry x="5" y="40" width="207" height="190" as="geometry" />
        </mxCell>
        <mxCell id="Rd3qPR3GxqKm1jp_kwzv-15" value="" style="group" vertex="1" connectable="0" parent="Rd3qPR3GxqKm1jp_kwzv-14">
          <mxGeometry width="206.99999999999997" height="190.00000000000003" as="geometry" />
        </mxCell>
        <mxCell id="Rd3qPR3GxqKm1jp_kwzv-16" value="" style="whiteSpace=wrap;html=1;fillColor=#FFFFFF;" vertex="1" parent="Rd3qPR3GxqKm1jp_kwzv-15">
          <mxGeometry width="206.99999999999997" height="190.00000000000003" as="geometry" />
        </mxCell>
        <mxCell id="Rd3qPR3GxqKm1jp_kwzv-17" value="" style="rounded=0;whiteSpace=wrap;html=1;fillColor=#f5f5f5;fontColor=#333333;strokeColor=#666666;" vertex="1" parent="Rd3qPR3GxqKm1jp_kwzv-15">
          <mxGeometry x="196.22659090909085" width="10.114772727272726" height="190" as="geometry" />
        </mxCell>
        <mxCell id="Rd3qPR3GxqKm1jp_kwzv-18" value="Role Name" style="rounded=0;whiteSpace=wrap;html=1;align=left;strokeColor=none;" vertex="1" parent="Rd3qPR3GxqKm1jp_kwzv-15">
          <mxGeometry x="3.184615384615384" y="60.00000000000001" width="184.7076923076923" height="20.000000000000004" as="geometry" />
        </mxCell>
        <mxCell id="Rd3qPR3GxqKm1jp_kwzv-19" value="Role Name" style="rounded=0;whiteSpace=wrap;html=1;align=left;strokeColor=none;" vertex="1" parent="Rd3qPR3GxqKm1jp_kwzv-15">
          <mxGeometry x="3.184615384615384" y="40.00000000000001" width="184.7076923076923" height="20.000000000000004" as="geometry" />
        </mxCell>
        <mxCell id="Rd3qPR3GxqKm1jp_kwzv-20" value="Role Name" style="rounded=0;whiteSpace=wrap;html=1;align=left;strokeColor=none;" vertex="1" parent="Rd3qPR3GxqKm1jp_kwzv-15">
          <mxGeometry x="3.184615384615384" y="20.000000000000004" width="184.7076923076923" height="20.000000000000004" as="geometry" />
        </mxCell>
        <mxCell id="Rd3qPR3GxqKm1jp_kwzv-21" value="" style="rounded=0;whiteSpace=wrap;html=1;fillColor=#B3B3B3;" vertex="1" parent="Rd3qPR3GxqKm1jp_kwzv-15">
          <mxGeometry x="196.22659090909085" width="10.114772727272726" height="40" as="geometry" />
        </mxCell>
        <mxCell id="Rd3qPR3GxqKm1jp_kwzv-22" value="Role Name" style="rounded=0;whiteSpace=wrap;html=1;align=left;strokeColor=none;" vertex="1" parent="Rd3qPR3GxqKm1jp_kwzv-14">
          <mxGeometry x="3.1846153846153844" y="2" width="184.70769230769233" height="20.000000000000004" as="geometry" />
        </mxCell>
        <mxCell id="Rd3qPR3GxqKm1jp_kwzv-23" value="Cancel" style="rounded=1;whiteSpace=wrap;html=1;strokeColor=default;fillColor=#B3B3B3;flipH=1;" vertex="1" parent="E74i4Yss6tRuVbI0QfsG-38">
          <mxGeometry x="165" y="236" width="47" height="20" as="geometry" />
        </mxCell>
        <mxCell id="Rd3qPR3GxqKm1jp_kwzv-24" value="Delete" style="rounded=1;whiteSpace=wrap;html=1;strokeColor=default;fillColor=#B3B3B3;flipH=1;" vertex="1" parent="E74i4Yss6tRuVbI0QfsG-38">
          <mxGeometry x="113" y="236" width="47" height="20" as="geometry" />
        </mxCell>
        <mxCell id="Rd3qPR3GxqKm1jp_kwzv-25" value="Edit" style="rounded=1;whiteSpace=wrap;html=1;strokeColor=default;fillColor=#B3B3B3;flipH=1;" vertex="1" parent="E74i4Yss6tRuVbI0QfsG-38">
          <mxGeometry x="59.06" y="236" width="47" height="20" as="geometry" />
        </mxCell>
        <mxCell id="Rd3qPR3GxqKm1jp_kwzv-26" value="New" style="rounded=1;whiteSpace=wrap;html=1;strokeColor=default;fillColor=#B3B3B3;flipH=1;" vertex="1" parent="E74i4Yss6tRuVbI0QfsG-38">
          <mxGeometry x="5.12" y="236" width="47" height="20" as="geometry" />
        </mxCell>
        <mxCell id="Rd3qPR3GxqKm1jp_kwzv-28" value="" style="group" vertex="1" connectable="0" parent="1">
          <mxGeometry x="80" y="1030" width="220" height="260" as="geometry" />
        </mxCell>
        <mxCell id="Rd3qPR3GxqKm1jp_kwzv-29" value="" style="whiteSpace=wrap;html=1;" vertex="1" parent="Rd3qPR3GxqKm1jp_kwzv-28">
          <mxGeometry width="220" height="260" as="geometry" />
        </mxCell>
        <mxCell id="Rd3qPR3GxqKm1jp_kwzv-30" value="" style="rounded=0;whiteSpace=wrap;html=1;" vertex="1" parent="Rd3qPR3GxqKm1jp_kwzv-28">
          <mxGeometry width="220" height="30" as="geometry" />
        </mxCell>
        <mxCell id="Rd3qPR3GxqKm1jp_kwzv-31" value="&lt;span&gt;People&lt;/span&gt;" style="rounded=0;whiteSpace=wrap;html=1;fillColor=#FFFFFF;strokeColor=none;align=left;" vertex="1" parent="Rd3qPR3GxqKm1jp_kwzv-28">
          <mxGeometry x="5.12" y="5" width="154.88" height="20" as="geometry" />
        </mxCell>
        <mxCell id="Rd3qPR3GxqKm1jp_kwzv-32" value="&lt;b&gt;X&lt;/b&gt;" style="rounded=0;whiteSpace=wrap;html=1;fillColor=#FFFFFF;" vertex="1" parent="Rd3qPR3GxqKm1jp_kwzv-28">
          <mxGeometry x="190" y="7.5" width="19.77" height="15" as="geometry" />
        </mxCell>
        <mxCell id="Rd3qPR3GxqKm1jp_kwzv-33" value="" style="group;strokeColor=none;" vertex="1" connectable="0" parent="Rd3qPR3GxqKm1jp_kwzv-28">
          <mxGeometry x="5" y="40" width="207" height="190" as="geometry" />
        </mxCell>
        <mxCell id="Rd3qPR3GxqKm1jp_kwzv-34" value="" style="group" vertex="1" connectable="0" parent="Rd3qPR3GxqKm1jp_kwzv-33">
          <mxGeometry width="206.99999999999997" height="190.00000000000003" as="geometry" />
        </mxCell>
        <mxCell id="Rd3qPR3GxqKm1jp_kwzv-35" value="" style="whiteSpace=wrap;html=1;fillColor=#FFFFFF;" vertex="1" parent="Rd3qPR3GxqKm1jp_kwzv-34">
          <mxGeometry width="206.99999999999997" height="190.00000000000003" as="geometry" />
        </mxCell>
        <mxCell id="Rd3qPR3GxqKm1jp_kwzv-36" value="" style="rounded=0;whiteSpace=wrap;html=1;fillColor=#f5f5f5;fontColor=#333333;strokeColor=#666666;" vertex="1" parent="Rd3qPR3GxqKm1jp_kwzv-34">
          <mxGeometry x="196.22659090909085" width="10.114772727272726" height="190" as="geometry" />
        </mxCell>
        <mxCell id="Rd3qPR3GxqKm1jp_kwzv-37" value="LastName, FirstName" style="rounded=0;whiteSpace=wrap;html=1;align=left;strokeColor=none;" vertex="1" parent="Rd3qPR3GxqKm1jp_kwzv-34">
          <mxGeometry x="3.184615384615384" y="60.00000000000001" width="184.7076923076923" height="20.000000000000004" as="geometry" />
        </mxCell>
        <mxCell id="Rd3qPR3GxqKm1jp_kwzv-38" value="LastName, FirstName" style="rounded=0;whiteSpace=wrap;html=1;align=left;strokeColor=none;" vertex="1" parent="Rd3qPR3GxqKm1jp_kwzv-34">
          <mxGeometry x="3.18" y="40" width="184.71" height="20" as="geometry" />
        </mxCell>
        <mxCell id="Rd3qPR3GxqKm1jp_kwzv-39" value="LastName, FirstName" style="rounded=0;whiteSpace=wrap;html=1;align=left;strokeColor=none;" vertex="1" parent="Rd3qPR3GxqKm1jp_kwzv-34">
          <mxGeometry x="3.184615384615384" y="20.000000000000004" width="184.7076923076923" height="20.000000000000004" as="geometry" />
        </mxCell>
        <mxCell id="Rd3qPR3GxqKm1jp_kwzv-40" value="" style="rounded=0;whiteSpace=wrap;html=1;fillColor=#B3B3B3;" vertex="1" parent="Rd3qPR3GxqKm1jp_kwzv-34">
          <mxGeometry x="196.22659090909085" width="10.114772727272726" height="40" as="geometry" />
        </mxCell>
        <mxCell id="Rd3qPR3GxqKm1jp_kwzv-41" value="LastName, FirstName" style="rounded=0;whiteSpace=wrap;html=1;align=left;strokeColor=none;" vertex="1" parent="Rd3qPR3GxqKm1jp_kwzv-33">
          <mxGeometry x="3.1846153846153844" y="2" width="184.70769230769233" height="20.000000000000004" as="geometry" />
        </mxCell>
        <mxCell id="Rd3qPR3GxqKm1jp_kwzv-42" value="Cancel" style="rounded=1;whiteSpace=wrap;html=1;strokeColor=default;fillColor=#B3B3B3;flipH=1;" vertex="1" parent="Rd3qPR3GxqKm1jp_kwzv-28">
          <mxGeometry x="165" y="236" width="47" height="20" as="geometry" />
        </mxCell>
        <mxCell id="Rd3qPR3GxqKm1jp_kwzv-43" value="Delete" style="rounded=1;whiteSpace=wrap;html=1;strokeColor=default;fillColor=#B3B3B3;flipH=1;" vertex="1" parent="Rd3qPR3GxqKm1jp_kwzv-28">
          <mxGeometry x="113" y="236" width="47" height="20" as="geometry" />
        </mxCell>
        <mxCell id="Rd3qPR3GxqKm1jp_kwzv-44" value="Edit" style="rounded=1;whiteSpace=wrap;html=1;strokeColor=default;fillColor=#B3B3B3;flipH=1;" vertex="1" parent="Rd3qPR3GxqKm1jp_kwzv-28">
          <mxGeometry x="59.06" y="236" width="47" height="20" as="geometry" />
        </mxCell>
        <mxCell id="Rd3qPR3GxqKm1jp_kwzv-45" value="New" style="rounded=1;whiteSpace=wrap;html=1;strokeColor=default;fillColor=#B3B3B3;flipH=1;" vertex="1" parent="Rd3qPR3GxqKm1jp_kwzv-28">
          <mxGeometry x="5.12" y="236" width="47" height="20" as="geometry" />
        </mxCell>
        <mxCell id="Rd3qPR3GxqKm1jp_kwzv-51" value="" style="group" vertex="1" connectable="0" parent="1">
          <mxGeometry x="70" y="480" width="430" height="200" as="geometry" />
        </mxCell>
        <mxCell id="E74i4Yss6tRuVbI0QfsG-34" value="" style="whiteSpace=wrap;html=1;container=1;" parent="Rd3qPR3GxqKm1jp_kwzv-51" vertex="1">
          <mxGeometry width="430" height="200" as="geometry" />
        </mxCell>
        <mxCell id="E74i4Yss6tRuVbI0QfsG-35" value="" style="rounded=0;whiteSpace=wrap;html=1;" parent="Rd3qPR3GxqKm1jp_kwzv-51" vertex="1">
          <mxGeometry width="430" height="30" as="geometry" />
        </mxCell>
        <mxCell id="E74i4Yss6tRuVbI0QfsG-36" value="&lt;span&gt;New / Edit Service&lt;br&gt;&lt;/span&gt;" style="rounded=0;whiteSpace=wrap;html=1;fillColor=#FFFFFF;strokeColor=none;align=left;" parent="Rd3qPR3GxqKm1jp_kwzv-51" vertex="1">
          <mxGeometry x="10" y="5" width="330" height="20" as="geometry" />
        </mxCell>
        <mxCell id="E74i4Yss6tRuVbI0QfsG-37" value="&lt;b&gt;X&lt;/b&gt;" style="rounded=0;whiteSpace=wrap;html=1;fillColor=#FFFFFF;" parent="Rd3qPR3GxqKm1jp_kwzv-51" vertex="1">
          <mxGeometry x="380" y="7.5" width="30" height="15" as="geometry" />
        </mxCell>
        <mxCell id="Rd3qPR3GxqKm1jp_kwzv-2" value="Name" style="text;html=1;strokeColor=none;fillColor=none;align=center;verticalAlign=middle;whiteSpace=wrap;rounded=0;fontSize=15;" vertex="1" parent="Rd3qPR3GxqKm1jp_kwzv-51">
          <mxGeometry x="20" y="40" width="60" height="30" as="geometry" />
        </mxCell>
        <mxCell id="Rd3qPR3GxqKm1jp_kwzv-3" value="" style="rounded=0;whiteSpace=wrap;html=1;" vertex="1" parent="Rd3qPR3GxqKm1jp_kwzv-51">
          <mxGeometry x="115" y="40" width="295" height="30" as="geometry" />
        </mxCell>
        <mxCell id="Rd3qPR3GxqKm1jp_kwzv-4" value="Date" style="text;html=1;strokeColor=none;fillColor=none;align=center;verticalAlign=middle;whiteSpace=wrap;rounded=0;fontSize=15;" vertex="1" parent="Rd3qPR3GxqKm1jp_kwzv-51">
          <mxGeometry x="20" y="80" width="60" height="30" as="geometry" />
        </mxCell>
        <mxCell id="Rd3qPR3GxqKm1jp_kwzv-5" value="" style="rounded=0;whiteSpace=wrap;html=1;" vertex="1" parent="Rd3qPR3GxqKm1jp_kwzv-51">
          <mxGeometry x="115" y="80" width="295" height="30" as="geometry" />
        </mxCell>
        <mxCell id="Rd3qPR3GxqKm1jp_kwzv-6" value="Description" style="text;html=1;strokeColor=none;fillColor=none;align=center;verticalAlign=middle;whiteSpace=wrap;rounded=0;fontSize=15;" vertex="1" parent="Rd3qPR3GxqKm1jp_kwzv-51">
          <mxGeometry x="20" y="120" width="60" height="30" as="geometry" />
        </mxCell>
        <mxCell id="Rd3qPR3GxqKm1jp_kwzv-7" value="" style="rounded=0;whiteSpace=wrap;html=1;" vertex="1" parent="Rd3qPR3GxqKm1jp_kwzv-51">
          <mxGeometry x="115" y="120" width="295" height="30" as="geometry" />
        </mxCell>
        <mxCell id="Rd3qPR3GxqKm1jp_kwzv-10" value="Cancel" style="rounded=1;whiteSpace=wrap;html=1;strokeColor=default;fillColor=#B3B3B3;" vertex="1" parent="Rd3qPR3GxqKm1jp_kwzv-51">
          <mxGeometry x="360" y="170" width="50" height="20" as="geometry" />
        </mxCell>
        <mxCell id="Rd3qPR3GxqKm1jp_kwzv-13" value="Save" style="rounded=1;whiteSpace=wrap;html=1;strokeColor=default;fillColor=#B3B3B3;" vertex="1" parent="Rd3qPR3GxqKm1jp_kwzv-51">
          <mxGeometry x="305" y="170" width="40" height="20" as="geometry" />
        </mxCell>
        <mxCell id="Rd3qPR3GxqKm1jp_kwzv-47" style="edgeStyle=orthogonalEdgeStyle;rounded=0;orthogonalLoop=1;jettySize=auto;html=1;fontSize=15;strokeColor=default;sketch=0;shadow=0;jumpStyle=gap;exitX=0;exitY=0;exitDx=0;exitDy=0;" edge="1" parent="1" source="E74i4Yss6tRuVbI0QfsG-29" target="E74i4Yss6tRuVbI0QfsG-39">
          <mxGeometry relative="1" as="geometry">
            <Array as="points">
              <mxPoint x="310" y="124" />
              <mxPoint x="310" y="50" />
              <mxPoint x="30" y="50" />
              <mxPoint x="30" y="851" />
            </Array>
          </mxGeometry>
        </mxCell>
        <mxCell id="Rd3qPR3GxqKm1jp_kwzv-52" value="&lt;font style=&quot;font-size: 14px&quot;&gt;Window will be used for both New and Edit. Either &quot;New&quot; or &quot;Edit&quot; will be shown depending on which action the window is used for.&lt;/font&gt;" style="shape=callout;whiteSpace=wrap;html=1;perimeter=calloutPerimeter;rounded=1;fontSize=15;" vertex="1" parent="1">
          <mxGeometry x="10" y="390" width="300" height="100" as="geometry" />
        </mxCell>
        <mxCell id="Rd3qPR3GxqKm1jp_kwzv-98" value="Service Name – &lt;font style=&quot;font-size: 12px&quot;&gt;Date&lt;/font&gt;" style="text;html=1;strokeColor=none;fillColor=none;align=left;verticalAlign=middle;whiteSpace=wrap;rounded=0;fontSize=15;" vertex="1" parent="1">
          <mxGeometry x="230" y="150" width="140" height="30" as="geometry" />
        </mxCell>
        <mxCell id="Rd3qPR3GxqKm1jp_kwzv-101" value="Description of Service" style="text;html=1;strokeColor=none;fillColor=none;align=left;verticalAlign=middle;whiteSpace=wrap;rounded=0;fontSize=11;" vertex="1" parent="1">
          <mxGeometry x="230" y="170" width="331" height="25" as="geometry" />
        </mxCell>
        <mxCell id="Rd3qPR3GxqKm1jp_kwzv-102" value="" style="group;strokeColor=none;" vertex="1" connectable="0" parent="1">
          <mxGeometry x="230" y="195" width="340" height="130" as="geometry" />
        </mxCell>
        <mxCell id="Rd3qPR3GxqKm1jp_kwzv-103" value="" style="group" vertex="1" connectable="0" parent="Rd3qPR3GxqKm1jp_kwzv-102">
          <mxGeometry width="340" height="130.00000000000003" as="geometry" />
        </mxCell>
        <mxCell id="Rd3qPR3GxqKm1jp_kwzv-104" value="" style="whiteSpace=wrap;html=1;fillColor=#FFFFFF;" vertex="1" parent="Rd3qPR3GxqKm1jp_kwzv-103">
          <mxGeometry width="340" height="130.00000000000003" as="geometry" />
        </mxCell>
        <mxCell id="Rd3qPR3GxqKm1jp_kwzv-105" value="" style="rounded=0;whiteSpace=wrap;html=1;fillColor=#f5f5f5;fontColor=#333333;strokeColor=#666666;" vertex="1" parent="Rd3qPR3GxqKm1jp_kwzv-103">
          <mxGeometry x="329.9966666666666" width="10" height="130.00000000000003" as="geometry" />
        </mxCell>
        <mxCell id="Rd3qPR3GxqKm1jp_kwzv-107" value="LastName, FirstName – Role" style="rounded=0;whiteSpace=wrap;html=1;align=left;strokeColor=none;" vertex="1" parent="Rd3qPR3GxqKm1jp_kwzv-103">
          <mxGeometry x="5.230769230769231" y="33.998421052631585" width="303.3846153846154" height="16" as="geometry" />
        </mxCell>
        <mxCell id="Rd3qPR3GxqKm1jp_kwzv-108" value="LastName, FirstName – Role" style="rounded=0;whiteSpace=wrap;html=1;align=left;strokeColor=none;" vertex="1" parent="Rd3qPR3GxqKm1jp_kwzv-103">
          <mxGeometry x="5.230769230769231" y="17.994210526315793" width="303.3846153846154" height="16" as="geometry" />
        </mxCell>
        <mxCell id="Rd3qPR3GxqKm1jp_kwzv-109" value="" style="rounded=0;whiteSpace=wrap;html=1;fillColor=#B3B3B3;" vertex="1" parent="Rd3qPR3GxqKm1jp_kwzv-103">
          <mxGeometry x="329.99615384615385" width="10" height="27.368421052631586" as="geometry" />
        </mxCell>
        <mxCell id="Rd3qPR3GxqKm1jp_kwzv-106" value="LastName, FirstName – Role" style="rounded=0;whiteSpace=wrap;html=1;align=left;strokeColor=none;" vertex="1" parent="Rd3qPR3GxqKm1jp_kwzv-103">
          <mxGeometry x="5.230769230769226" y="50.00263157894736" width="303.3846153846154" height="16" as="geometry" />
        </mxCell>
        <mxCell id="Rd3qPR3GxqKm1jp_kwzv-110" value="LastName, FirstName – Role" style="rounded=0;whiteSpace=wrap;html=1;align=left;strokeColor=none;" vertex="1" parent="Rd3qPR3GxqKm1jp_kwzv-103">
          <mxGeometry x="5.230769230769226" y="1.9984210526315849" width="303.3846153846154" height="16" as="geometry" />
        </mxCell>
        <mxCell id="Rd3qPR3GxqKm1jp_kwzv-131" style="edgeStyle=orthogonalEdgeStyle;rounded=0;sketch=0;jumpStyle=gap;orthogonalLoop=1;jettySize=auto;html=1;exitX=0.5;exitY=0;exitDx=0;exitDy=0;entryX=0;entryY=0.5;entryDx=0;entryDy=0;shadow=0;fontSize=11;strokeColor=default;" edge="1" parent="1" source="Rd3qPR3GxqKm1jp_kwzv-112" target="Rd3qPR3GxqKm1jp_kwzv-83">
          <mxGeometry relative="1" as="geometry">
            <Array as="points">
              <mxPoint x="367" y="390" />
              <mxPoint x="670" y="390" />
              <mxPoint x="670" y="198" />
            </Array>
          </mxGeometry>
        </mxCell>
        <mxCell id="Rd3qPR3GxqKm1jp_kwzv-112" value="New Participant" style="rounded=1;whiteSpace=wrap;html=1;strokeColor=default;fillColor=#B3B3B3;" vertex="1" parent="1">
          <mxGeometry x="320" y="330" width="94.42" height="20" as="geometry" />
        </mxCell>
        <mxCell id="Rd3qPR3GxqKm1jp_kwzv-126" style="edgeStyle=orthogonalEdgeStyle;rounded=0;sketch=0;jumpStyle=gap;orthogonalLoop=1;jettySize=auto;html=1;shadow=0;fontSize=11;strokeColor=default;" edge="1" parent="1" source="Rd3qPR3GxqKm1jp_kwzv-113" target="Rd3qPR3GxqKm1jp_kwzv-83">
          <mxGeometry relative="1" as="geometry">
            <Array as="points">
              <mxPoint x="480" y="390" />
              <mxPoint x="670" y="390" />
              <mxPoint x="670" y="198" />
            </Array>
          </mxGeometry>
        </mxCell>
        <mxCell id="Rd3qPR3GxqKm1jp_kwzv-114" value="Delete" style="rounded=1;whiteSpace=wrap;html=1;strokeColor=default;fillColor=#B3B3B3;" vertex="1" parent="1">
          <mxGeometry x="524.6516279069766" y="330" width="45.34883720930232" height="20" as="geometry" />
        </mxCell>
        <mxCell id="Rd3qPR3GxqKm1jp_kwzv-118" style="edgeStyle=orthogonalEdgeStyle;rounded=0;sketch=0;jumpStyle=gap;orthogonalLoop=1;jettySize=auto;html=1;shadow=0;fontSize=11;strokeColor=default;" edge="1" parent="1" source="Rd3qPR3GxqKm1jp_kwzv-44" target="Rd3qPR3GxqKm1jp_kwzv-69">
          <mxGeometry relative="1" as="geometry">
            <Array as="points">
              <mxPoint x="163" y="1330" />
              <mxPoint x="899" y="1330" />
            </Array>
          </mxGeometry>
        </mxCell>
        <mxCell id="Rd3qPR3GxqKm1jp_kwzv-119" style="edgeStyle=orthogonalEdgeStyle;rounded=0;sketch=0;jumpStyle=gap;orthogonalLoop=1;jettySize=auto;html=1;shadow=0;fontSize=11;strokeColor=default;" edge="1" parent="1" source="Rd3qPR3GxqKm1jp_kwzv-45" target="Rd3qPR3GxqKm1jp_kwzv-69">
          <mxGeometry relative="1" as="geometry">
            <mxPoint x="900" y="610" as="targetPoint" />
            <Array as="points">
              <mxPoint x="109" y="1330" />
              <mxPoint x="900" y="1330" />
            </Array>
          </mxGeometry>
        </mxCell>
        <mxCell id="Rd3qPR3GxqKm1jp_kwzv-121" value="" style="group" vertex="1" connectable="0" parent="1">
          <mxGeometry x="570" y="1030" width="471.6300000000001" height="330" as="geometry" />
        </mxCell>
        <mxCell id="Rd3qPR3GxqKm1jp_kwzv-69" value="" style="whiteSpace=wrap;html=1;container=1;" vertex="1" parent="Rd3qPR3GxqKm1jp_kwzv-121">
          <mxGeometry x="81.63" y="100" width="390" height="160" as="geometry" />
        </mxCell>
        <mxCell id="Rd3qPR3GxqKm1jp_kwzv-70" value="Delete" style="rounded=1;whiteSpace=wrap;html=1;strokeColor=default;fillColor=#B3B3B3;" vertex="1" parent="Rd3qPR3GxqKm1jp_kwzv-69">
          <mxGeometry x="220" y="125.71428571428571" width="46.28" height="22.857142857142854" as="geometry" />
        </mxCell>
        <mxCell id="Rd3qPR3GxqKm1jp_kwzv-71" value="Save" style="rounded=1;whiteSpace=wrap;html=1;strokeColor=default;fillColor=#B3B3B3;" vertex="1" parent="Rd3qPR3GxqKm1jp_kwzv-69">
          <mxGeometry x="276.62790697674404" y="125.71428571428571" width="36.279069767441854" height="22.857142857142854" as="geometry" />
        </mxCell>
        <mxCell id="Rd3qPR3GxqKm1jp_kwzv-72" value="Cancel" style="rounded=1;whiteSpace=wrap;html=1;strokeColor=default;fillColor=#B3B3B3;" vertex="1" parent="Rd3qPR3GxqKm1jp_kwzv-69">
          <mxGeometry x="326.5116279069766" y="125.71428571428571" width="45.34883720930232" height="22.857142857142854" as="geometry" />
        </mxCell>
        <mxCell id="Rd3qPR3GxqKm1jp_kwzv-80" value="&lt;font style=&quot;font-size: 15px&quot;&gt;Last&lt;/font&gt;" style="text;html=1;strokeColor=none;fillColor=none;align=center;verticalAlign=middle;whiteSpace=wrap;rounded=0;fontSize=15;" vertex="1" parent="Rd3qPR3GxqKm1jp_kwzv-69">
          <mxGeometry x="9.07000000000005" y="79.9985714285715" width="82.56" height="34.285714285714285" as="geometry" />
        </mxCell>
        <mxCell id="Rd3qPR3GxqKm1jp_kwzv-73" value="" style="rounded=0;whiteSpace=wrap;html=1;" vertex="1" parent="Rd3qPR3GxqKm1jp_kwzv-121">
          <mxGeometry x="81.63" y="100" width="389.99999999999983" height="30" as="geometry" />
        </mxCell>
        <mxCell id="Rd3qPR3GxqKm1jp_kwzv-74" value="&lt;span&gt;New / Edit Person&lt;br&gt;&lt;/span&gt;" style="rounded=0;whiteSpace=wrap;html=1;fillColor=#FFFFFF;strokeColor=none;align=left;" vertex="1" parent="Rd3qPR3GxqKm1jp_kwzv-121">
          <mxGeometry x="90.69976744186044" y="105" width="299.3023255813953" height="20" as="geometry" />
        </mxCell>
        <mxCell id="Rd3qPR3GxqKm1jp_kwzv-75" value="&lt;b&gt;X&lt;/b&gt;" style="rounded=0;whiteSpace=wrap;html=1;fillColor=#FFFFFF;" vertex="1" parent="Rd3qPR3GxqKm1jp_kwzv-121">
          <mxGeometry x="426.28116279069764" y="107.5" width="27.209302325581383" height="15" as="geometry" />
        </mxCell>
        <mxCell id="Rd3qPR3GxqKm1jp_kwzv-76" value="&lt;font style=&quot;font-size: 15px&quot;&gt;First&lt;/font&gt;" style="text;html=1;strokeColor=none;fillColor=none;align=center;verticalAlign=middle;whiteSpace=wrap;rounded=0;fontSize=15;" vertex="1" parent="Rd3qPR3GxqKm1jp_kwzv-121">
          <mxGeometry x="90.70000000000005" y="140" width="82.56" height="30" as="geometry" />
        </mxCell>
        <mxCell id="Rd3qPR3GxqKm1jp_kwzv-77" value="" style="rounded=0;whiteSpace=wrap;html=1;" vertex="1" parent="Rd3qPR3GxqKm1jp_kwzv-121">
          <mxGeometry x="185.93232558139528" y="140" width="267.55813953488365" height="30" as="geometry" />
        </mxCell>
        <mxCell id="Rd3qPR3GxqKm1jp_kwzv-78" value="&lt;font style=&quot;font-size: 14px&quot;&gt;Window will be used for both New and Edit. Either &quot;New&quot; or &quot;Edit&quot; will be shown depending on which action the window is used for.&lt;/font&gt;" style="shape=callout;whiteSpace=wrap;html=1;perimeter=calloutPerimeter;rounded=1;fontSize=15;" vertex="1" parent="Rd3qPR3GxqKm1jp_kwzv-121">
          <mxGeometry width="300" height="100" as="geometry" />
        </mxCell>
        <mxCell id="Rd3qPR3GxqKm1jp_kwzv-79" value="&lt;font style=&quot;font-size: 13px&quot;&gt;Only displayed if used as an edit screen&lt;/font&gt;" style="shape=callout;whiteSpace=wrap;html=1;perimeter=calloutPerimeter;rounded=1;fontSize=15;position2=0.52;direction=west;" vertex="1" parent="Rd3qPR3GxqKm1jp_kwzv-121">
          <mxGeometry x="270" y="250" width="120" height="80" as="geometry" />
        </mxCell>
        <mxCell id="Rd3qPR3GxqKm1jp_kwzv-120" value="" style="edgeStyle=orthogonalEdgeStyle;rounded=0;sketch=0;jumpStyle=gap;orthogonalLoop=1;jettySize=auto;html=1;shadow=0;fontSize=11;strokeColor=default;" edge="1" parent="Rd3qPR3GxqKm1jp_kwzv-121" source="Rd3qPR3GxqKm1jp_kwzv-69" target="Rd3qPR3GxqKm1jp_kwzv-79">
          <mxGeometry relative="1" as="geometry" />
        </mxCell>
        <mxCell id="Rd3qPR3GxqKm1jp_kwzv-81" value="" style="rounded=0;whiteSpace=wrap;html=1;" vertex="1" parent="Rd3qPR3GxqKm1jp_kwzv-121">
          <mxGeometry x="185.93232558139528" y="180" width="267.55813953488365" height="30" as="geometry" />
        </mxCell>
        <mxCell id="Rd3qPR3GxqKm1jp_kwzv-122" value="" style="group" vertex="1" connectable="0" parent="1">
          <mxGeometry x="680" y="17.5" width="470" height="340" as="geometry" />
        </mxCell>
        <mxCell id="Rd3qPR3GxqKm1jp_kwzv-83" value="" style="whiteSpace=wrap;html=1;container=1;" vertex="1" parent="Rd3qPR3GxqKm1jp_kwzv-122">
          <mxGeometry x="81.63" y="100" width="390" height="160" as="geometry" />
        </mxCell>
        <mxCell id="Rd3qPR3GxqKm1jp_kwzv-84" value="Delete" style="rounded=1;whiteSpace=wrap;html=1;strokeColor=default;fillColor=#B3B3B3;" vertex="1" parent="Rd3qPR3GxqKm1jp_kwzv-83">
          <mxGeometry x="220" y="125.71428571428571" width="46.28" height="22.857142857142854" as="geometry" />
        </mxCell>
        <mxCell id="Rd3qPR3GxqKm1jp_kwzv-85" value="Save" style="rounded=1;whiteSpace=wrap;html=1;strokeColor=default;fillColor=#B3B3B3;" vertex="1" parent="Rd3qPR3GxqKm1jp_kwzv-83">
          <mxGeometry x="276.62790697674404" y="125.71428571428571" width="36.279069767441854" height="22.857142857142854" as="geometry" />
        </mxCell>
        <mxCell id="Rd3qPR3GxqKm1jp_kwzv-86" value="Cancel" style="rounded=1;whiteSpace=wrap;html=1;strokeColor=default;fillColor=#B3B3B3;" vertex="1" parent="Rd3qPR3GxqKm1jp_kwzv-83">
          <mxGeometry x="326.5116279069766" y="125.71428571428571" width="45.34883720930232" height="22.857142857142854" as="geometry" />
        </mxCell>
        <mxCell id="Rd3qPR3GxqKm1jp_kwzv-87" value="&lt;font style=&quot;font-size: 15px&quot;&gt;Role&lt;/font&gt;" style="text;html=1;strokeColor=none;fillColor=none;align=center;verticalAlign=middle;whiteSpace=wrap;rounded=0;fontSize=15;" vertex="1" parent="Rd3qPR3GxqKm1jp_kwzv-83">
          <mxGeometry x="9.07000000000005" y="79.9985714285715" width="82.56" height="34.285714285714285" as="geometry" />
        </mxCell>
        <mxCell id="Rd3qPR3GxqKm1jp_kwzv-88" value="" style="rounded=0;whiteSpace=wrap;html=1;" vertex="1" parent="Rd3qPR3GxqKm1jp_kwzv-122">
          <mxGeometry x="81.63" y="100" width="389.99999999999983" height="30" as="geometry" />
        </mxCell>
        <mxCell id="Rd3qPR3GxqKm1jp_kwzv-89" value="&lt;span&gt;New / Edit Participant&lt;br&gt;&lt;/span&gt;" style="rounded=0;whiteSpace=wrap;html=1;fillColor=#FFFFFF;strokeColor=none;align=left;" vertex="1" parent="Rd3qPR3GxqKm1jp_kwzv-122">
          <mxGeometry x="90.69976744186044" y="105" width="299.3023255813953" height="20" as="geometry" />
        </mxCell>
        <mxCell id="Rd3qPR3GxqKm1jp_kwzv-90" value="&lt;b&gt;X&lt;/b&gt;" style="rounded=0;whiteSpace=wrap;html=1;fillColor=#FFFFFF;" vertex="1" parent="Rd3qPR3GxqKm1jp_kwzv-122">
          <mxGeometry x="426.28116279069764" y="107.5" width="27.209302325581383" height="15" as="geometry" />
        </mxCell>
        <mxCell id="Rd3qPR3GxqKm1jp_kwzv-91" value="&lt;font style=&quot;font-size: 15px&quot;&gt;Person&lt;/font&gt;" style="text;html=1;strokeColor=none;fillColor=none;align=center;verticalAlign=middle;whiteSpace=wrap;rounded=0;fontSize=15;" vertex="1" parent="Rd3qPR3GxqKm1jp_kwzv-122">
          <mxGeometry x="90.70000000000005" y="140" width="82.56" height="30" as="geometry" />
        </mxCell>
        <mxCell id="Rd3qPR3GxqKm1jp_kwzv-92" value="" style="rounded=0;whiteSpace=wrap;html=1;" vertex="1" parent="Rd3qPR3GxqKm1jp_kwzv-122">
          <mxGeometry x="185.93232558139528" y="140" width="267.55813953488365" height="30" as="geometry" />
        </mxCell>
        <mxCell id="Rd3qPR3GxqKm1jp_kwzv-94" value="&lt;font style=&quot;font-size: 13px&quot;&gt;Only displayed if used as an edit screen&lt;/font&gt;" style="shape=callout;whiteSpace=wrap;html=1;perimeter=calloutPerimeter;rounded=1;fontSize=15;position2=0.52;direction=west;" vertex="1" parent="Rd3qPR3GxqKm1jp_kwzv-122">
          <mxGeometry x="259.71000000000004" y="260" width="120" height="80" as="geometry" />
        </mxCell>
        <mxCell id="Rd3qPR3GxqKm1jp_kwzv-95" value="" style="rounded=0;whiteSpace=wrap;html=1;" vertex="1" parent="Rd3qPR3GxqKm1jp_kwzv-122">
          <mxGeometry x="185.93232558139528" y="180" width="267.55813953488365" height="30" as="geometry" />
        </mxCell>
        <mxCell id="Rd3qPR3GxqKm1jp_kwzv-96" value="V" style="rounded=0;whiteSpace=wrap;html=1;fontSize=15;" vertex="1" parent="Rd3qPR3GxqKm1jp_kwzv-122">
          <mxGeometry x="409.49" y="181" width="44" height="29" as="geometry" />
        </mxCell>
        <mxCell id="Rd3qPR3GxqKm1jp_kwzv-97" value="V" style="rounded=0;whiteSpace=wrap;html=1;fontSize=15;" vertex="1" parent="Rd3qPR3GxqKm1jp_kwzv-122">
          <mxGeometry x="409.49" y="141" width="44" height="29" as="geometry" />
        </mxCell>
        <mxCell id="Rd3qPR3GxqKm1jp_kwzv-93" value="&lt;font style=&quot;font-size: 14px&quot;&gt;Window will be used for both New and Edit. Either &quot;New&quot; or &quot;Edit&quot; will be shown depending on which action the window is used for.&lt;/font&gt;" style="shape=callout;whiteSpace=wrap;html=1;perimeter=calloutPerimeter;rounded=1;fontSize=15;" vertex="1" parent="Rd3qPR3GxqKm1jp_kwzv-122">
          <mxGeometry width="300" height="100" as="geometry" />
        </mxCell>
        <mxCell id="Rd3qPR3GxqKm1jp_kwzv-124" value="" style="group" vertex="1" connectable="0" parent="1">
          <mxGeometry x="630" y="710" width="471.63" height="320" as="geometry" />
        </mxCell>
        <mxCell id="Rd3qPR3GxqKm1jp_kwzv-54" value="" style="whiteSpace=wrap;html=1;container=1;" vertex="1" parent="Rd3qPR3GxqKm1jp_kwzv-124">
          <mxGeometry x="81.63" y="100" width="390" height="140" as="geometry" />
        </mxCell>
        <mxCell id="Rd3qPR3GxqKm1jp_kwzv-66" value="Delete" style="rounded=1;whiteSpace=wrap;html=1;strokeColor=default;fillColor=#B3B3B3;" vertex="1" parent="Rd3qPR3GxqKm1jp_kwzv-54">
          <mxGeometry x="220" y="110" width="46.28" height="20" as="geometry" />
        </mxCell>
        <mxCell id="Rd3qPR3GxqKm1jp_kwzv-65" value="Save" style="rounded=1;whiteSpace=wrap;html=1;strokeColor=default;fillColor=#B3B3B3;" vertex="1" parent="Rd3qPR3GxqKm1jp_kwzv-54">
          <mxGeometry x="276.62790697674404" y="110" width="36.279069767441854" height="20" as="geometry" />
        </mxCell>
        <mxCell id="Rd3qPR3GxqKm1jp_kwzv-64" value="Cancel" style="rounded=1;whiteSpace=wrap;html=1;strokeColor=default;fillColor=#B3B3B3;" vertex="1" parent="Rd3qPR3GxqKm1jp_kwzv-54">
          <mxGeometry x="326.5116279069766" y="110" width="45.34883720930232" height="20" as="geometry" />
        </mxCell>
        <mxCell id="Rd3qPR3GxqKm1jp_kwzv-55" value="" style="rounded=0;whiteSpace=wrap;html=1;" vertex="1" parent="Rd3qPR3GxqKm1jp_kwzv-124">
          <mxGeometry x="81.63" y="100" width="389.99999999999983" height="30" as="geometry" />
        </mxCell>
        <mxCell id="Rd3qPR3GxqKm1jp_kwzv-56" value="&lt;span&gt;New / Edit Role&lt;br&gt;&lt;/span&gt;" style="rounded=0;whiteSpace=wrap;html=1;fillColor=#FFFFFF;strokeColor=none;align=left;" vertex="1" parent="Rd3qPR3GxqKm1jp_kwzv-124">
          <mxGeometry x="90.69976744186044" y="105" width="299.3023255813953" height="20" as="geometry" />
        </mxCell>
        <mxCell id="Rd3qPR3GxqKm1jp_kwzv-57" value="&lt;b&gt;X&lt;/b&gt;" style="rounded=0;whiteSpace=wrap;html=1;fillColor=#FFFFFF;" vertex="1" parent="Rd3qPR3GxqKm1jp_kwzv-124">
          <mxGeometry x="426.2811627906975" y="107.5" width="27.209302325581383" height="15" as="geometry" />
        </mxCell>
        <mxCell id="Rd3qPR3GxqKm1jp_kwzv-58" value="&lt;font style=&quot;font-size: 15px&quot;&gt;Role Name&lt;/font&gt;" style="text;html=1;strokeColor=none;fillColor=none;align=center;verticalAlign=middle;whiteSpace=wrap;rounded=0;fontSize=15;" vertex="1" parent="Rd3qPR3GxqKm1jp_kwzv-124">
          <mxGeometry x="90.70000000000005" y="140" width="82.56" height="30" as="geometry" />
        </mxCell>
        <mxCell id="Rd3qPR3GxqKm1jp_kwzv-59" value="" style="rounded=0;whiteSpace=wrap;html=1;" vertex="1" parent="Rd3qPR3GxqKm1jp_kwzv-124">
          <mxGeometry x="185.93232558139528" y="140" width="267.55813953488365" height="30" as="geometry" />
        </mxCell>
        <mxCell id="Rd3qPR3GxqKm1jp_kwzv-67" value="&lt;font style=&quot;font-size: 14px&quot;&gt;Window will be used for both New and Edit. Either &quot;New&quot; or &quot;Edit&quot; will be shown depending on which action the window is used for.&lt;/font&gt;" style="shape=callout;whiteSpace=wrap;html=1;perimeter=calloutPerimeter;rounded=1;fontSize=15;" vertex="1" parent="Rd3qPR3GxqKm1jp_kwzv-124">
          <mxGeometry width="300" height="100" as="geometry" />
        </mxCell>
        <mxCell id="Rd3qPR3GxqKm1jp_kwzv-68" value="&lt;font style=&quot;font-size: 13px&quot;&gt;Only displayed if used as an edit screen&lt;/font&gt;" style="shape=callout;whiteSpace=wrap;html=1;perimeter=calloutPerimeter;rounded=1;fontSize=15;position2=0.52;direction=west;" vertex="1" parent="Rd3qPR3GxqKm1jp_kwzv-124">
          <mxGeometry x="259.71000000000004" y="240" width="120" height="80" as="geometry" />
        </mxCell>
        <mxCell id="Rd3qPR3GxqKm1jp_kwzv-128" style="edgeStyle=orthogonalEdgeStyle;rounded=0;sketch=0;jumpStyle=gap;orthogonalLoop=1;jettySize=auto;html=1;entryX=0;entryY=0.75;entryDx=0;entryDy=0;shadow=0;fontSize=11;strokeColor=default;" edge="1" parent="1" source="Rd3qPR3GxqKm1jp_kwzv-25" target="Rd3qPR3GxqKm1jp_kwzv-54">
          <mxGeometry relative="1" as="geometry">
            <Array as="points">
              <mxPoint x="160" y="1010" />
              <mxPoint x="430" y="1010" />
              <mxPoint x="430" y="920" />
            </Array>
          </mxGeometry>
        </mxCell>
        <mxCell id="Rd3qPR3GxqKm1jp_kwzv-129" style="edgeStyle=orthogonalEdgeStyle;rounded=0;sketch=0;jumpStyle=gap;orthogonalLoop=1;jettySize=auto;html=1;shadow=0;fontSize=11;strokeColor=default;" edge="1" parent="1" source="Rd3qPR3GxqKm1jp_kwzv-26" target="Rd3qPR3GxqKm1jp_kwzv-54">
          <mxGeometry relative="1" as="geometry">
            <mxPoint x="670" y="910.0000000000002" as="targetPoint" />
            <Array as="points">
              <mxPoint x="110" y="1010" />
              <mxPoint x="430" y="1010" />
              <mxPoint x="430" y="920" />
            </Array>
          </mxGeometry>
        </mxCell>
        <mxCell id="Rd3qPR3GxqKm1jp_kwzv-113" value="Edit Participant" style="rounded=1;whiteSpace=wrap;html=1;strokeColor=default;fillColor=#B3B3B3;" vertex="1" parent="1">
          <mxGeometry x="425" y="330" width="90" height="20" as="geometry" />
        </mxCell>
      </root>
    </mxGraphModel>
  </diagram>
</mxfile>
